<?xml version="1.0" encoding="UTF-8"?>
<svg viewBox="0 0 48 48" version="1.1" xmlns="http://www.w3.org/2000/svg" xmlns:xlink="http://www.w3.org/1999/xlink">
    <!-- Generator: Sketch 52.4 (67378) - http://www.bohemiancoding.com/sketch -->
    <title>Group 2</title>
    <desc>Created with Sketch.</desc>
    <g id="AZTEC" stroke="none" stroke-width="1" fill="none" fill-rule="evenodd">
      <g id="Group" transform="translate(26.000000, 26.000000) rotate(-315.000000) translate(-26.000000, -26.000000) translate(8.000000, 8.000000)" stroke="#FFFFFF">
          <path d="M6.00939586,6.44792295 L29.7979421,6.44792295 L29.7979421,0.157813056 L29.7979421,6.44792295 L35.9332725,6.44792295 L29.7979421,6.44792295 L29.7979421,30.1841867 L35.9332725,30.1841867 L29.7979421,30.1841867 L29.7979421,35.9895493 L29.7979421,30.1841867 L6.00939586,30.1841867 L6.00939586,6.44792295 L0.0226117195,6.44792295 L6.00939586,6.44792295 L6.00939586,30.1841867 L29.7979421,30.1841867 L29.7979421,6.44792295 L6.00939586,6.44792295 L6.00939586,0.0786921773 L6.00939586,6.44792295 Z M6.00939586,30.1841867 L0.0226117195,30.1841867 L6.00939586,30.1841867 L6.00939586,35.9895493 L6.00939586,30.1841867 Z" id="Shape" stroke-width="3.76000039" stroke-linecap="square"></path>
          <rect id="Rectangle" stroke-width="2.72000028" fill="#FFFFFF" x="12.0087758" y="12.4792951" width="11.7910129" height="11.7591206"></rect>
      </g>
    </g>
</svg>
